<svg width="24" height="24" viewBox="0 0 24 24" fill="none" xmlns="http://www.w3.org/2000/svg">
<rect width="24" height="24" fill="transparent"/>
<path d="M12.89 1.45L20.89 5.45C21.2232 5.61557 21.5036 5.87082 21.6997 6.18704C21.8958 6.50326 21.9998 6.86791 22 7.24V16.77C21.9998 17.1421 21.8958 17.5067 21.6997 17.823C21.5036 18.1392 21.2232 18.3944 20.89 18.56L12.89 22.56C12.6121 22.699 12.3057 22.7714 11.995 22.7714C11.6843 22.7714 11.3779 22.699 11.1 22.56L3.1 18.56C2.76713 18.3923 2.48776 18.1349 2.29339 17.8168C2.09903 17.4988 1.99741 17.1327 2 16.76V7.24C2.0002 6.86791 2.10419 6.50326 2.30028 6.18704C2.49637 5.87082 2.77679 5.61557 3.11 5.45L11.11 1.45C11.3866 1.31257 11.6912 1.24106 12 1.24106C12.3088 1.24106 12.6134 1.31257 12.89 1.45Z" stroke="#B3B3B3" stroke-width="2" stroke-linecap="round" stroke-linejoin="round"/>
<path d="M17.4472 4.39443C17.9412 4.14744 18.1414 3.54676 17.8944 3.05279C17.6474 2.55881 17.0468 2.35858 16.5528 2.60557L17.4472 4.39443ZM6.55279 4.39443L10.6584 6.44721L11.5528 4.65836L7.44721 2.60557L6.55279 4.39443ZM13.3416 6.44721L17.4472 4.39443L16.5528 2.60557L12.4472 4.65836L13.3416 6.44721ZM10.6584 6.44721C11.5029 6.8695 12.4971 6.86951 13.3416 6.44721L12.4472 4.65836C12.1657 4.79912 11.8343 4.79912 11.5528 4.65836L10.6584 6.44721Z" fill="#B3B3B3"/>
<path d="M2.32 6.16L12 11L21.68 6.16" stroke="#B3B3B3" stroke-width="2" stroke-linecap="round" stroke-linejoin="round"/>
<path d="M12 22.76V11" stroke="#B3B3B3" stroke-width="2" stroke-linecap="round" stroke-linejoin="round"/>
<path d="M7 20.5V15.7361C7 14.9785 6.572 14.286 5.89443 13.9472L2 12M17 20.5V15.7361C17 14.9785 17.428 14.286 18.1056 13.9472L22 12" stroke="#B3B3B3" stroke-width="2"/>
</svg>
