<svg fill="#000000" xmlns="http://www.w3.org/2000/svg"  viewBox="0 0 50 50" width="500px" height="500px"><path fill="none" stroke="#000000" stroke-linejoin="round" stroke-miterlimit="10" stroke-width="2" d="M23,22h3c-0.035,3.968-0.977,5.551-2.016,5.56"/><path fill="#000000" d="M42.982,42.753c-0.134-0.436-0.535-0.734-0.991-0.736c-3.639-0.021-7.613-1.823-10.815-3.982C29.013,38.173,24.042,38.648,21.5,38c-1.711-0.436-4.41-1.704-5.516-4.94c3.756,2.75,8.417,2.026,11.418,1.946c-0.987-0.958-1.738-1.866-2.138-2.598l2.274-1.516c0.302-0.201,0.472-0.551,0.442-0.913s-0.253-0.68-0.583-0.83c-0.033-0.015-3.333-1.56-4.446-5.841c-0.03-0.115-0.081-0.217-0.144-0.309h-0.869c-0.216,3.335-1.39,5.059-2.953,5.06c-1.529,0.001-2.756-1.687-2.958-5.06h-4.026c-0.553,0-1-0.448-1-1s0.447-1,1-1h11.028C23,12.455,28.764,5.809,31.567,3.926c0.368-0.247,0.54-0.701,0.427-1.13C31.882,2.367,31.443,2.035,31,2C22,2,13.514,5.825,9.081,13.501c-3.139,5.437-3.954,12.013-2.237,18.042c1.655,5.811,5.436,10.551,10.647,13.348C21.427,47.002,26,48,30,48c4.587,0,8.573-1.329,12.575-4.08C42.952,43.662,43.116,43.189,42.982,42.753z"/><path d="M23 22L26 23 25 26 23 28 22 23 23 23z"/></svg>